<?xml version="1.0" standalone="no"?>
<!DOCTYPE svg PUBLIC "-//W3C//DTD SVG 20010904//EN"
 "http://www.w3.org/TR/2001/REC-SVG-20010904/DTD/svg10.dtd">
<svg version="1.0" xmlns="http://www.w3.org/2000/svg"
 width="306.000000pt" height="306.000000pt" viewBox="0 0 306.000000 306.000000"
 preserveAspectRatio="xMidYMid meet">
<metadata>
Created by potrace 1.14, written by Peter Selinger 2001-2017
</metadata>
<g transform="translate(0.000000,306.000000) scale(0.100000,-0.100000)"
fill="#000000" stroke="none">
<path d="M1390 3054 c-373 -44 -689 -194 -940 -444 -593 -594 -598 -1551 -10
-2150 317 -323 775 -493 1219 -452 373 35 690 183 950 443 219 218 362 487
423 792 29 148 31 413 4 557 -120 625 -599 1110 -1213 1230 -104 20 -350 34
-433 24z m331 -966 c98 -36 157 -74 229 -147 67 -68 114 -145 146 -241 26 -77
26 -263 0 -340 -65 -192 -204 -331 -396 -396 -77 -26 -263 -26 -340 0 -192 65
-331 204 -396 396 -28 83 -26 263 4 350 71 207 236 355 447 400 73 16 233 5
306 -22z"/>
<path d="M1410 2074 c-105 -23 -186 -68 -271 -153 -225 -225 -225 -557 0 -782
225 -225 557 -225 782 0 86 87 131 166 154 276 40 191 -12 364 -154 506 -142
142 -319 195 -511 153z"/>
</g>
</svg>
